<svg width="16" height="16" viewBox="0 0 9 7" fill="none" xmlns="http://www.w3.org/2000/svg">
<path d="M6.20117 6.69629C5.84635 6.69629 5.52897 6.58887 5.24902 6.37402C4.97233 6.15918 4.78678 5.88086 4.69238 5.53906C4.62728 5.30143 4.59473 5.05078 4.59473 4.78711C4.59473 4.38672 4.67285 3.98145 4.8291 3.57129C4.98535 3.15788 5.2002 2.76888 5.47363 2.4043C5.74707 2.03971 6.06283 1.69954 6.4209 1.38379C6.78223 1.06478 7.1696 0.784831 7.58301 0.543945L8.29102 1.25195C7.55534 1.84115 7.05241 2.29688 6.78223 2.61914C6.5153 2.94141 6.37695 3.26204 6.36719 3.58105C6.76432 3.62663 7.09635 3.79753 7.36328 4.09375C7.63021 4.38997 7.76367 4.73665 7.76367 5.13379C7.76367 5.56673 7.61068 5.9362 7.30469 6.24219C7.00195 6.54492 6.63411 6.69629 6.20117 6.69629ZM1.9043 6.69629C1.54948 6.69629 1.2321 6.58887 0.952148 6.37402C0.675456 6.15918 0.489909 5.88086 0.395508 5.53906C0.330404 5.30143 0.297852 5.05078 0.297852 4.78711C0.297852 4.38672 0.375977 3.98145 0.532227 3.57129C0.688477 3.15788 0.90332 2.76888 1.17676 2.4043C1.4502 2.03971 1.76595 1.69954 2.12402 1.38379C2.48535 1.06478 2.87272 0.784831 3.28613 0.543945L3.99414 1.25195C3.25846 1.84115 2.75553 2.29688 2.48535 2.61914C2.21842 2.94141 2.08008 3.26204 2.07031 3.58105C2.46745 3.62663 2.79948 3.79753 3.06641 4.09375C3.33333 4.38997 3.4668 4.73665 3.4668 5.13379C3.4668 5.56673 3.3138 5.9362 3.00781 6.24219C2.70508 6.54492 2.33724 6.69629 1.9043 6.69629Z" fill="black"/>
</svg>
