<svg width="26" height="20" viewBox="0 0 26 20" fill="#fff" xmlns="http://www.w3.org/2000/svg">
<path d="M1.74723 0.0583172C1.32067 0.150866 1.00075 0.309521 0.675749 0.591574C-0.202767 1.354 -0.228157 2.52188 0.61989 3.32837C0.762077 3.46499 0.990593 3.61484 1.18864 3.70298L1.51872 3.85282V7.21102V10.5736H5.3527H9.18669V13.2752V15.9723L8.92262 16.0781C8.59255 16.2103 8.07965 16.6466 7.92223 16.9331C7.47028 17.7484 7.6277 18.6122 8.3488 19.2336C9.42536 20.1723 11.2433 19.9431 11.9441 18.784C12.3148 18.1582 12.325 17.5633 11.9746 16.9331C11.807 16.6422 11.3043 16.2103 10.9793 16.0781L10.7101 15.9723V13.2752V10.5736H13.3761H16.0422V13.2752V15.9723L15.7781 16.0781C15.448 16.2103 14.9351 16.6466 14.7777 16.9331C14.3257 17.7484 14.4832 18.6122 15.2043 19.2336C16.2808 20.1723 18.0988 19.9431 18.7996 18.784C19.1703 18.1582 19.1804 17.5633 18.83 16.9331C18.6625 16.6422 18.1597 16.2103 17.8347 16.0781L17.5656 15.9723V13.2752V10.5736H20.257H22.9484V13.2752V15.9723L22.6843 16.0781C22.3543 16.2103 21.8414 16.6466 21.684 16.9331C21.232 17.7484 21.3894 18.6122 22.1105 19.2336C23.1871 20.1723 25.005 19.9431 25.7058 18.784C26.0765 18.1582 26.0867 17.5633 25.7363 16.9331C25.5687 16.6422 25.066 16.2103 24.741 16.0781L24.4718 15.9723V9.91256V3.85282L24.741 3.74264C25.066 3.61043 25.5738 3.17853 25.7363 2.89207C26.1882 2.08117 26.0308 1.21297 25.3097 0.587168C24.416 -0.192886 23.0144 -0.192886 22.1054 0.591574C21.2269 1.34959 21.2015 2.52188 22.0496 3.32837C22.1918 3.46499 22.4203 3.61484 22.6183 3.70298L22.9484 3.85282V6.54996V9.2515H20.257H17.5656V6.54996V3.85282L17.8347 3.74264C18.1597 3.61043 18.6675 3.17853 18.83 2.89207C19.282 2.08117 19.1246 1.21297 18.4035 0.587168C17.5097 -0.192886 16.1082 -0.192886 15.1992 0.591574C14.3207 1.34959 14.2953 2.52188 15.1433 3.32837C15.2855 3.46499 15.514 3.61484 15.7121 3.70298L16.0422 3.85282V6.54996V9.2515H13.3761H10.7101V6.54996V3.85282L10.9793 3.74264C11.3043 3.61043 11.8121 3.17853 11.9746 2.89207C12.4265 2.08117 12.2691 1.21297 11.548 0.587168C10.6543 -0.192886 9.2527 -0.192886 8.34372 0.591574C7.4652 1.34959 7.43981 2.52188 8.28786 3.32837C8.43005 3.46499 8.65856 3.61484 8.85661 3.70298L9.18669 3.85282V6.54996V9.2515H6.11442H3.04216V6.54996V3.85282L3.3113 3.74264C3.6363 3.61043 4.14411 3.17853 4.30661 2.89207C4.75856 2.08117 4.60114 1.21297 3.88005 0.587168C3.3113 0.0891666 2.51403 -0.109152 1.74723 0.0583172ZM2.63591 1.40689C2.86442 1.50825 3.04216 1.75945 3.04216 1.98421C3.04216 2.31034 2.65622 2.64087 2.27536 2.64087C2.04176 2.64087 1.72692 2.46899 1.6152 2.27949C1.42731 1.96218 1.54411 1.61402 1.90466 1.42451C2.14841 1.29671 2.37184 1.2923 2.63591 1.40689ZM10.3039 1.40689C10.5324 1.50825 10.7101 1.75945 10.7101 1.98421C10.7101 2.31034 10.3242 2.64087 9.94333 2.64087C9.70973 2.64087 9.39489 2.46899 9.28317 2.27949C9.09528 1.96218 9.21208 1.61402 9.57262 1.42451C9.81637 1.29671 10.0398 1.2923 10.3039 1.40689ZM17.1593 1.40689C17.3879 1.50825 17.5656 1.75945 17.5656 1.98421C17.5656 2.31034 17.1797 2.64087 16.7988 2.64087C16.5652 2.64087 16.2504 2.46899 16.1386 2.27949C15.9507 1.96218 16.0675 1.61402 16.4281 1.42451C16.6718 1.29671 16.8953 1.2923 17.1593 1.40689ZM24.0656 1.40689C24.2941 1.50825 24.4718 1.75945 24.4718 1.98421C24.4718 2.31034 24.0859 2.64087 23.705 2.64087C23.4715 2.64087 23.1566 2.46899 23.0449 2.27949C22.857 1.96218 22.9738 1.61402 23.3343 1.42451C23.5781 1.29671 23.8015 1.2923 24.0656 1.40689ZM10.3039 17.2724C10.5324 17.3738 10.7101 17.625 10.7101 17.8453C10.7101 18.1803 10.3343 18.5064 9.94333 18.5064C9.70973 18.5064 9.39489 18.3345 9.28317 18.145C9.09528 17.8277 9.21208 17.4795 9.57262 17.29C9.81637 17.1622 10.0398 17.1578 10.3039 17.2724ZM17.1593 17.2724C17.3879 17.3738 17.5656 17.625 17.5656 17.8453C17.5656 18.1803 17.1898 18.5064 16.7988 18.5064C16.5652 18.5064 16.2504 18.3345 16.1386 18.145C15.9507 17.8277 16.0675 17.4795 16.4281 17.29C16.6718 17.1622 16.8953 17.1578 17.1593 17.2724ZM24.0656 17.2724C24.2941 17.3738 24.4718 17.625 24.4718 17.8453C24.4718 18.1803 24.0961 18.5064 23.705 18.5064C23.4715 18.5064 23.1566 18.3345 23.0449 18.145C22.857 17.8277 22.9738 17.4795 23.3343 17.29C23.5781 17.1622 23.8015 17.1578 24.0656 17.2724Z" fill="#fff"/>
</svg>
