<svg width="26" height="26" viewBox="0 0 26 26" fill="#fff" xmlns="http://www.w3.org/2000/svg">
<path d="M1.625 3.25C1.625 2.38805 1.96741 1.5614 2.5769 0.951903C3.1864 0.34241 4.01305 0 4.875 0L14.625 0C15.487 0 16.3136 0.34241 16.9231 0.951903C17.5326 1.5614 17.875 2.38805 17.875 3.25V16.25C18.737 16.25 19.5636 16.5924 20.1731 17.2019C20.7826 17.8114 21.125 18.638 21.125 19.5V20.3125C21.125 20.528 21.2106 20.7347 21.363 20.887C21.5153 21.0394 21.722 21.125 21.9375 21.125C22.153 21.125 22.3597 21.0394 22.512 20.887C22.6644 20.7347 22.75 20.528 22.75 20.3125V13H21.9375C21.722 13 21.5153 12.9144 21.363 12.762C21.2106 12.6097 21.125 12.403 21.125 12.1875V7.10938C21.125 6.89389 21.2106 6.68722 21.363 6.53485C21.5153 6.38248 21.722 6.29688 21.9375 6.29688H24.3669C24.349 5.52338 24.2808 4.84413 24.0402 4.31113C23.9115 4.00121 23.6872 3.74048 23.4 3.56687C23.101 3.38812 22.646 3.25 21.9375 3.25C21.722 3.25 21.5153 3.1644 21.363 3.01202C21.2106 2.85965 21.125 2.65299 21.125 2.4375C21.125 2.22201 21.2106 2.01535 21.363 1.86298C21.5153 1.7106 21.722 1.625 21.9375 1.625C22.854 1.625 23.6178 1.80375 24.232 2.171C24.8544 2.5415 25.2623 3.06638 25.5223 3.64488C26.0016 4.70925 26 6.0255 26 7.0265V12.1859C26.0002 12.2927 25.9794 12.3985 25.9386 12.4973C25.8979 12.5961 25.8381 12.6858 25.7626 12.7614C25.6871 12.8371 25.5975 12.8971 25.4988 12.938C25.4001 12.9789 25.2943 13 25.1875 13H24.375V20.3125C24.375 20.959 24.1182 21.579 23.6611 22.0361C23.204 22.4932 22.584 22.75 21.9375 22.75C21.291 22.75 20.671 22.4932 20.2139 22.0361C19.7568 21.579 19.5 20.959 19.5 20.3125V19.5C19.5 19.069 19.3288 18.6557 19.024 18.351C18.7193 18.0462 18.306 17.875 17.875 17.875V24.375H18.6875C18.903 24.375 19.1097 24.4606 19.262 24.613C19.4144 24.7653 19.5 24.972 19.5 25.1875C19.5 25.403 19.4144 25.6097 19.262 25.762C19.1097 25.9144 18.903 26 18.6875 26H0.8125C0.597012 26 0.390349 25.9144 0.237976 25.762C0.0856024 25.6097 0 25.403 0 25.1875C0 24.972 0.0856024 24.7653 0.237976 24.613C0.390349 24.4606 0.597012 24.375 0.8125 24.375H1.625V3.25ZM16.25 3.25C16.25 2.81902 16.0788 2.4057 15.774 2.10095C15.4693 1.7962 15.056 1.625 14.625 1.625H4.875C4.44402 1.625 4.0307 1.7962 3.72595 2.10095C3.4212 2.4057 3.25 2.81902 3.25 3.25V24.375H16.25V3.25Z" fill="#fff"/>
</svg>
