<svg width="26" height="26" viewBox="0 0 26 26" fill="#fff" xmlns="http://www.w3.org/2000/svg">
<g clip-path="url(#clip0_12_2)">
<path d="M13 6.5C13.2155 6.5 13.4222 6.5856 13.5745 6.73798C13.7269 6.89035 13.8125 7.09701 13.8125 7.3125V9.75C13.8125 9.96549 13.7269 10.1722 13.5745 10.3245C13.4222 10.4769 13.2155 10.5625 13 10.5625C12.7845 10.5625 12.5778 10.4769 12.4255 10.3245C12.2731 10.1722 12.1875 9.96549 12.1875 9.75V7.3125C12.1875 7.09701 12.2731 6.89035 12.4255 6.73798C12.5778 6.5856 12.7845 6.5 13 6.5ZM6.0645 9.3145C6.21687 9.16218 6.42349 9.07661 6.63894 9.07661C6.85438 9.07661 7.06101 9.16218 7.21338 9.3145L8.70025 10.7997C8.77579 10.8753 8.83572 10.965 8.8766 11.0637C8.91748 11.1624 8.93853 11.2682 8.93853 11.375C8.93853 11.4818 8.91748 11.5876 8.8766 11.6863C8.83572 11.785 8.77579 11.8747 8.70025 11.9503C8.62471 12.0258 8.53503 12.0857 8.43632 12.1266C8.33762 12.1675 8.23183 12.1885 8.125 12.1885C8.01817 12.1885 7.91238 12.1675 7.81368 12.1266C7.71497 12.0857 7.62529 12.0258 7.54975 11.9503L6.0645 10.4634C5.91218 10.311 5.82661 10.1044 5.82661 9.88894C5.82661 9.67349 5.91218 9.46687 6.0645 9.3145ZM3.25 16.25C3.25 16.0345 3.3356 15.8278 3.48798 15.6755C3.64035 15.5231 3.84701 15.4375 4.0625 15.4375H6.63975C6.85524 15.4375 7.0619 15.5231 7.21427 15.6755C7.36665 15.8278 7.45225 16.0345 7.45225 16.25C7.45225 16.4655 7.36665 16.6722 7.21427 16.8245C7.0619 16.9769 6.85524 17.0625 6.63975 17.0625H4.0625C3.84701 17.0625 3.64035 16.9769 3.48798 16.8245C3.3356 16.6722 3.25 16.4655 3.25 16.25ZM18.6875 16.25C18.6875 16.0345 18.7731 15.8278 18.9255 15.6755C19.0778 15.5231 19.2845 15.4375 19.5 15.4375H21.9375C22.153 15.4375 22.3597 15.5231 22.512 15.6755C22.6644 15.8278 22.75 16.0345 22.75 16.25C22.75 16.4655 22.6644 16.6722 22.512 16.8245C22.3597 16.9769 22.153 17.0625 21.9375 17.0625H19.5C19.2845 17.0625 19.0778 16.9769 18.9255 16.8245C18.7731 16.6722 18.6875 16.4655 18.6875 16.25ZM19.9128 9.35025C19.8002 9.23826 19.6496 9.17275 19.4909 9.16672C19.3322 9.1607 19.1771 9.21462 19.0564 9.31775L12.2639 15.1288C12.1056 15.2621 11.9771 15.4272 11.8867 15.6133C11.7962 15.7994 11.7458 16.0025 11.7388 16.2093C11.7318 16.4161 11.7682 16.6221 11.8458 16.814C11.9234 17.0058 12.0403 17.1793 12.1892 17.3231C12.338 17.4669 12.5154 17.5778 12.7098 17.6488C12.9042 17.7197 13.1113 17.749 13.3178 17.7349C13.5242 17.7208 13.7254 17.6634 13.9083 17.5666C14.0912 17.4699 14.2518 17.3357 14.3796 17.173L19.9599 10.1904C20.057 10.0688 20.1058 9.9158 20.0971 9.7605C20.0884 9.6052 20.0228 9.45855 19.9128 9.34862V9.35025Z" fill="#fff"/>
<path fill-rule="evenodd" clip-rule="evenodd" d="M8.62523e-06 16.25C0.00170735 14.3582 0.41629 12.4896 1.21481 10.7745C2.01334 9.05949 3.17656 7.5394 4.62327 6.32037C6.06999 5.10135 7.76533 4.21277 9.59095 3.71667C11.4166 3.22056 13.3285 3.12889 15.1932 3.44805C17.0579 3.76721 18.8305 4.48951 20.3872 5.56453C21.9439 6.63955 23.2472 8.04137 24.2061 9.67215C25.1651 11.3029 25.7566 13.1233 25.9392 15.0063C26.1219 16.8893 25.8915 18.7895 25.2639 20.5742C24.5456 22.6103 22.2658 23.1774 20.4994 22.6054C18.3771 21.918 15.3969 21.125 13 21.125C10.6048 21.125 7.62126 21.918 5.50063 22.6054C3.73426 23.1774 1.45438 22.6103 0.736134 20.5742C0.247239 19.185 -0.00168906 17.7227 8.62523e-06 16.25ZM13 4.87505C11.1806 4.87458 9.38765 5.31054 7.77159 6.14634C6.15553 6.98214 4.76354 8.19339 3.71243 9.67844C2.66132 11.1635 1.98177 12.879 1.73081 14.681C1.47985 16.483 1.66479 18.3189 2.27013 20.0347C2.60001 20.969 3.77001 21.4582 5.00013 21.0584C7.14513 20.3662 10.3318 19.5 13 19.5C15.6683 19.5 18.8565 20.3645 20.9999 21.06C22.23 21.4582 23.4 20.969 23.7299 20.0347C24.3352 18.3189 24.5202 16.483 24.2692 14.681C24.0182 12.879 23.3387 11.1635 22.2876 9.67844C21.2365 8.19339 19.8445 6.98214 18.2284 6.14634C16.6124 5.31054 14.8194 4.87458 13 4.87505Z" fill="#fff"/>
</g>
<defs>
<clipPath id="clip0_12_2">
<rect width="26" height="26" fill="#fff"/>
</clipPath>
</defs>
</svg>
